<?xml version="1.0" encoding="UTF-8" standalone="no"?>
<svg
   xmlns:dc="http://purl.org/dc/elements/1.1/"
   xmlns:cc="http://creativecommons.org/ns#"
   xmlns:rdf="http://www.w3.org/1999/02/22-rdf-syntax-ns#"
   xmlns:svg="http://www.w3.org/2000/svg"
   xmlns="http://www.w3.org/2000/svg"
   xmlns:sodipodi="http://sodipodi.sourceforge.net/DTD/sodipodi-0.dtd"
   xmlns:inkscape="http://www.inkscape.org/namespaces/inkscape"
   width="637.51593"
   height="575.46246"
   viewBox="0 0 510.01275 460.36997"
   version="1.1"
   id="svg2"
   inkscape:version="0.48.2 r9819"
   sodipodi:docname="M!.svg">
  <metadata
     id="metadata37">
    <rdf:RDF>
      <cc:Work
         rdf:about="">
        <dc:format>image/svg+xml</dc:format>
        <dc:type
           rdf:resource="http://purl.org/dc/dcmitype/StillImage" />
        <dc:title></dc:title>
      </cc:Work>
    </rdf:RDF>
  </metadata>
  <defs
     id="defs35" />
  <sodipodi:namedview
     pagecolor="#ffffff"
     bordercolor="#666666"
     borderopacity="1"
     objecttolerance="10"
     gridtolerance="10"
     guidetolerance="10"
     inkscape:pageopacity="0"
     inkscape:pageshadow="2"
     inkscape:window-width="1024"
     inkscape:window-height="547"
     id="namedview33"
     showgrid="false"
     height="372.05px"
     fit-margin-top="10"
     fit-margin-left="10"
     fit-margin-right="10"
     fit-margin-bottom="10"
     inkscape:zoom="0.38212231"
     inkscape:cx="416.45146"
     inkscape:cy="183.60986"
     inkscape:window-x="-8"
     inkscape:window-y="22"
     inkscape:window-maximized="1"
     inkscape:current-layer="svg2" />
  <g
     id="#ffffffff"
     transform="translate(63.641392,10.000057)">
    <path
       d="m 68.57,106.24 c 17.79,0 35.57,0.02 53.35,0 10.01,25.6 19.93,51.23 29.9,76.85 0.9,2.04 1.29,4.54 3.23,5.91 2.01,0.6 3.52,-1.09 4.07,-2.83 10.36,-26.63 20.68,-53.29 31.07,-79.91 17.79,-0.05 35.58,0.03 53.37,-0.05 8.82,56.67 17.38,113.37 26.29,170.03 -16.24,0.01 -32.48,0.04 -48.72,-0.02 -3.9,-26.45 -8,-52.88 -11.96,-79.32 0.04,-1.61 -0.60619,-3.54099 -2.1,-3.73 -1.43308,-0.18133 -2.67,1.38 -3.07,2.88 -10.78,25.49 -21.54,51 -32.31,76.49 -0.75,1.89 -2.42,3.75 -4.61,3.69 -7.4,0.04 -14.8,0.04 -22.19,0 -2.41,-0.05 -3.94,-2.29 -4.72,-4.32 -10.58,-25.15 -21.25,-50.26 -31.83,-75.42 -0.61,-1.38 -1.69032,-3.29087 -3.37,-2.98 -1.67968,0.31087 -1.8,2.16 -2.02,3.5 -3.99,26.42 -7.97,52.84 -12.01,79.26 -16.19,-0.05 -32.38,0 -48.57,-0.02 8.71,-56.68 17.44,-113.35 26.2,-170.01 z"
       id="path5"
       inkscape:connector-curvature="0"
       style="fill:#ffffff"
       sodipodi:nodetypes="ccccccccccsccccccscccc" />
    <path
       d="m 277.01,106.21 c 21.12,0.08 42.23,0.01 63.35,0.03 -4.99,31.93 -9.65,63.91 -14.48,95.86 -0.57,2.72 -0.21,6.34 -2.9,8.02 -9,0.3 -18.03,0.06 -27.04,0.12 -2.42,0.4 -3.79,-2.21 -3.95,-4.27 -4.99,-33.25 -9.98,-66.51 -14.98,-99.76 z"
       id="path7"
       inkscape:connector-curvature="0"
       style="fill:#ffffff" />
    <path
       d="m 303.48,228.69 c 11.59,-2.66 24.36,4.32 28.21,15.59 3.65,9.64 0.45,21.31 -7.66,27.68 -9.22,7.67 -24.09,7.04 -32.58,-1.47 -5.97,-5.71 -8.72,-14.51 -6.98,-22.6 1.73,-9.44 9.61,-17.33 19.01,-19.2 z"
       id="path9"
       inkscape:connector-curvature="0"
       style="fill:#ffffff" />
  </g>
  <g
     id="#ff1f33ff"
     transform="translate(63.613719,7.9999971)">
    <path
       d="m 18.29,0 346.27,0 c 7.97,1.24 15.13,7.19 17.33,15.02 1.24,3.88 0.81,8 0.87,12.01 -0.01,111.66 -0.01,223.33 0,334.99 0.11,10.95 -9.42,20.2 -20.13,20.98 L 19.84,383 C 10.03,382.09 1.33,374.36 0,364.48 L 0,18.31 C 1.19,9 8.99,1.21 18.29,0 m 50.28,106.24 c -8.76,56.66 -17.49,113.33 -26.2,170.01 16.19,0.02 32.38,-0.03 48.57,0.02 4.04,-26.42 8.02,-52.84 12.01,-79.26 0.22,-1.34 0.42193,-3.20424 2.02,-3.5 1.76129,-0.32597 3.37,2.98 3.37,2.98 l 31.83,75.42 c 0,0 2.31,4.27 4.72,4.32 7.39,0.04 14.79,0.04 22.19,0 2.19,0.06 4.61,-3.69 4.61,-3.69 L 204,196.05 c 0,0 1.63692,-3.06133 3.07,-2.88 1.49381,0.18901 2.14,2.12 2.1,3.73 3.96,26.44 8.06,52.87 11.96,79.32 16.24,0.06 32.48,0.03 48.72,0.02 -8.91,-56.66 -17.47,-113.36 -26.29,-170.03 -17.79,0.08 -35.58,0 -53.37,0.05 -10.39,26.62 -20.71,53.28 -31.07,79.91 -0.55,1.74 -2.06,3.43 -4.07,2.83 -1.94,-1.37 -2.33,-3.87 -3.23,-5.91 -9.97,-25.62 -19.89,-51.25 -29.9,-76.85 -17.78,0.02 -35.56,0 -53.35,0 m 208.44,-0.03 c 5,33.25 9.99,66.51 14.98,99.76 0.16,2.06 1.53,4.67 3.95,4.27 9.01,-0.06 18.04,0.18 27.04,-0.12 2.69,-1.68 2.33,-5.3 2.9,-8.02 4.83,-31.95 9.49,-63.93 14.48,-95.86 -21.12,-0.02 -42.23,0.05 -63.35,-0.03 m 26.47,122.48 c -9.4,1.87 -17.28,9.76 -19.01,19.2 -1.74,8.09 1.01,16.89 6.98,22.6 8.49,8.51 23.36,9.14 32.58,1.47 8.11,-6.37 11.31,-18.04 7.66,-27.68 -3.85,-11.27 -16.62,-18.25 -28.21,-15.59 z"
       id="path12"
       inkscape:connector-curvature="0"
       style="fill:#ff1f33"
       sodipodi:nodetypes="ccccccccccccccsccccccsccccccccccccccccccccccc" />
  </g>
  <g
     id="#000000ff"
     transform="matrix(0.31570201,0,0,0.31570201,-140.88507,363.26981)">
    <path
       d="m 1926.62,101.8 c 22.63,-3.73 46.5,0.69 66.32,12.23 20.45,11.74 36.42,31.7 41.67,54.86 2.58,9.48 1.56,19.36 1.76,29.05 -1.5,18.72 -8.36,37.21 -20.44,51.7 -10.89,13.33 -25.95,23.04 -42.37,28.04 -19.3,5.85 -40.26,6.04 -59.68,0.67 -17.53,-4.87 -33.6,-15.07 -45.07,-29.23 -13.65,-16.79 -20.56,-38.6 -20.32,-60.14 -0.52,-18.66 5.88,-37.34 17.37,-52.02 14.71,-18.99 37.15,-31.4 60.76,-35.16 m 5.93,42.93 c -17.83,3.7 -33.46,18.09 -37.13,36.15 -3.39,19.26 5.3,40.38 22,50.86 13.9,8.99 32.6,9.75 47.16,1.85 15,-7.78 24.65,-23.96 25.77,-40.66 1.28,-11.74 -3.11,-23.63 -10.85,-32.41 -11.34,-13.15 -29.94,-19.58 -46.95,-15.79 z"
       id="path15"
       inkscape:connector-curvature="0"
       style="fill:#000000" />
    <path
       d="m 890.23,122.27 c 10.22,-12.92 26.61,-19.84 42.85,-20.5 19.92,-0.69 39.87,4.52 57.45,13.81 -5.78,11.63 -11.88,23.1 -17.7,34.71 -9.18,-7.43 -20.99,-12.5 -32.97,-11.08 -6.19,1 -13.07,4.37 -14.89,10.85 -1.69,5.11 1.46,10.44 5.7,13.2 6.78,4.49 14.92,6.1 22.55,8.57 12.77,3.69 26,8.77 34.85,19.15 7.78,8.97 10.16,21.37 9.26,32.93 -0.56,13.76 -4.54,28.04 -14.29,38.18 -10.92,10.88 -26.05,16.69 -41.19,18.39 -24.78,2.82 -50.14,-4.61 -70.44,-18.86 5.88,-11.19 11.89,-22.31 17.76,-33.51 0.42,-0.89 0.99,-1.67 1.72,-2.35 10.91,9.97 24.97,18.06 40.18,17.51 5.75,-0.21 11.81,-1.99 15.86,-6.29 4.76,-4.67 5.83,-13.11 1.4,-18.36 -3.83,-4.68 -9.71,-6.92 -15.22,-8.94 -13.41,-4.29 -27.74,-7 -39.53,-15.12 -7.12,-4.93 -12.01,-12.65 -13.83,-21.09 -3.67,-17.45 -0.9,-37.03 10.48,-51.2 z"
       id="path17"
       inkscape:connector-curvature="0"
       style="fill:#000000" />
    <path
       d="m 500.57,106.25 c 14.61,-0.02 29.23,0.02 43.84,-0.02 8.22,21.58 16.39,43.17 24.59,64.75 3.13,8.59 6.77,17.01 9.5,25.74 3.24,-6.35 5.48,-13.26 8.3,-19.84 9.47,-23.54 18.9,-47.1 28.4,-70.62 14.76,0 29.52,-0.05 44.28,0.02 7.26,47.96 14.51,95.93 21.76,143.9 1.22,8.78 2.86,17.51 3.82,26.33 -14.81,-0.08 -29.63,0.12 -44.44,-0.1 -3.96,-32.64 -8.25,-65.24 -12.31,-97.87 -13.96,32.52 -27.27,65.33 -41.02,97.94 -5.96,0.06 -11.91,-0.02 -17.85,0.06 -13.05,-32.6 -26.04,-65.22 -39,-97.85 -5.36,32.5 -9.49,65.25 -14.51,97.83 -14.78,-0.09 -29.56,0.09 -44.33,-0.09 9.85,-56.69 19.32,-113.45 28.97,-170.18 z"
       id="path19"
       inkscape:connector-curvature="0"
       style="fill:#000000" />
    <path
       d="m 702.72,106.24 c 14.85,0.06 29.71,-0.09 44.57,0.08 -0.09,29.54 -0.01,59.08 -0.04,88.63 0.05,11.59 -0.1,23.92 5.45,34.45 3.64,7.19 11.34,11.54 19.21,12.29 9.63,1.19 20.93,-0.59 27.23,-8.71 7,-9.04 7.39,-21.08 7.85,-32.02 0.02,-31.57 0.01,-63.14 0,-94.71 14.83,-0.02 29.66,0.02 44.5,-0.02 0.03,31.6 0,63.19 0.01,94.79 -0.02,17.2 -0.32,35.61 -9.59,50.74 -8.71,14.55 -24.52,23.35 -40.77,26.76 -19.59,4.11 -40.49,3.5 -59.4,-3.36 -13.37,-4.77 -25.25,-14.32 -31.53,-27.19 -5.94,-11.7 -7.09,-25.05 -7.45,-37.97 -0.05,-34.58 0.04,-69.17 -0.04,-103.76 z"
       id="path21"
       inkscape:connector-curvature="0"
       style="fill:#000000" />
    <path
       d="m 1018.26,106.24 c 14.73,0 29.46,0.03 44.2,-0.02 0.1,56.76 0.02,113.52 0.04,170.28 -14.73,0.04 -29.45,-0.07 -44.18,0.05 -0.16,-56.77 -0.04,-113.54 -0.06,-170.31 z"
       id="path23"
       inkscape:connector-curvature="0"
       style="fill:#000000" />
    <path
       d="m 1109.96,106.26 c 14.62,-0.02 29.24,-0.03 43.87,0 11.42,30.19 22.88,60.36 34.35,90.53 12.07,-30.19 24.28,-60.31 36.33,-90.5 14.77,-0.1 29.55,-0.01 44.33,-0.05 8.63,56.73 17.08,113.49 25.8,170.21 -14.82,0.18 -29.64,-0.11 -44.45,0.15 -4.37,-32.6 -8.32,-65.27 -12.49,-97.9 -7.74,17.12 -14.53,34.69 -21.94,51.97 -6.34,15.27 -12.75,30.51 -19.05,45.81 -6,0.04 -11.99,0.03 -17.97,0 -8.07,-20.37 -16.23,-40.71 -24.34,-61.07 -5.06,-12.15 -9.4,-24.61 -14.84,-36.58 -4.8,32.55 -9.44,65.13 -14.23,97.69 -14.76,-0.05 -29.51,0.01 -44.27,-0.03 9.64,-56.75 19.25,-113.49 28.9,-170.23 z"
       id="path25"
       inkscape:connector-curvature="0"
       style="fill:#000000" />
    <path
       d="m 1311.99,106.25 c 14.83,-0.02 29.66,0.02 44.49,-0.02 0.05,30.59 -0.01,61.18 0.03,91.77 0.38,10.49 0.37,21.57 5.39,31.1 3.33,6.59 10.04,11.11 17.28,12.27 8.59,1.42 18.24,0.78 25.45,-4.59 5.62,-4.23 8.51,-11 9.97,-17.69 2.32,-10.87 1.5,-22.03 1.65,-33.06 -0.01,-26.59 0.01,-53.18 -0.01,-79.77 14.83,-0.04 29.66,0.02 44.49,-0.03 0.05,30.25 0.01,60.5 0.02,90.76 0.14,18.85 0.48,39.23 -10.07,55.73 -9.64,15.47 -27.29,23.81 -44.77,26.71 -19.23,3.09 -39.61,2.07 -57.75,-5.45 -13.02,-5.33 -24.18,-15.47 -29.77,-28.49 -4.41,-9.87 -5.66,-20.77 -6.12,-31.46 -0.59,-35.92 -0.11,-71.85 -0.28,-107.78 z"
       id="path27"
       inkscape:connector-curvature="0"
       style="fill:#000000" />
    <path
       d="m 1488.51,106.23 c 14.8,0.01 29.6,0.07 44.4,-0.04 27.25,34.56 54.03,69.5 81.26,104.08 0.17,-34.67 0.04,-69.34 0.07,-104.01 14.83,-0.03 29.67,-0.02 44.51,0 -0.05,56.76 0.1,113.53 -0.07,170.3 -14.81,-0.1 -29.62,-0.09 -44.43,-0.01 -27.11,-34.83 -54.25,-69.63 -81.2,-104.58 -0.15,34.85 0.03,69.7 -0.09,104.56 -14.82,-0.07 -29.65,0.01 -44.47,-0.04 0.03,-56.76 -0.02,-113.51 0.02,-170.26 z"
       id="path29"
       inkscape:connector-curvature="0"
       style="fill:#000000" />
    <path
       d="m 1687.25,106.25 c 15.92,-0.01 31.84,0 47.76,0 9.73,0.2 19.55,-0.64 29.2,1.01 18.43,2.91 35.99,11.82 48.85,25.41 12.02,12.19 19.94,28.27 22.59,45.16 3.18,19.7 -0.74,40.53 -11.23,57.54 -14.98,24.91 -43.36,40.88 -72.38,41.14 -21.58,0 -43.16,-0.03 -64.75,0.02 -0.1,-56.76 -0.02,-113.52 -0.04,-170.28 m 44.5,37.76 c -0.02,31.57 0.03,63.14 -0.02,94.72 6.74,-0.11 13.55,0.49 20.24,-0.71 9.76,-1.48 19.33,-5.66 26.26,-12.83 7.14,-7.21 10.89,-17.21 11.84,-27.2 1.21,-11.88 -0.66,-24.48 -7.29,-34.61 -5.48,-8.51 -14.36,-14.49 -24.02,-17.23 -8.75,-2.74 -17.98,-2.13 -27.01,-2.14 z"
       id="path31"
       inkscape:connector-curvature="0"
       style="fill:#000000" />
  </g>
</svg>
