<svg xmlns="http://www.w3.org/2000/svg" xmlns:xlink="http://www.w3.org/1999/xlink" width="414.223" height="68" viewBox="0 0 414.223 68">
  <defs>
    <clipPath id="clip-path">
      <rect id="Rectángulo_2156" data-name="Rectángulo 2156" width="414.223" height="68" fill="none"/>
    </clipPath>
  </defs>
  <g id="Logo_Nación_Servicios_Color" data-name="Logo Nación Servicios Color" transform="translate(207.111 34)">
    <g id="Logo_Nación_Servicios_Color-2" data-name="Logo Nación Servicios Color" transform="translate(-207.111 -34)">
      <g id="Grupo_8729" data-name="Grupo 8729">
        <g id="Grupo_8728" data-name="Grupo 8728" clip-path="url(#clip-path)">
          <g id="Grupo_4" data-name="Grupo 4" transform="translate(-0.007 -0.001)">
            <path id="Trazado_17" data-name="Trazado 17" d="M28.643,10.946c-.066-.036-.163-.072-.189-.094a.272.272,0,0,0-.189.027L18.6,15.595c-.072.033-.063.06.013.06H38.158c.076,0,.082-.027.013-.06Z" transform="translate(5.63 3.29)" fill="#003d4e"/>
            <path id="Trazado_18" data-name="Trazado 18" d="M34.006,0A34,34,0,1,0,67.994,34.01V34A34.041,34.041,0,0,0,34.006,0M53.163,53.751a.107.107,0,0,1-.1.1H14.948a.1.1,0,0,1-.1-.1h0V49.912a.106.106,0,0,1,.1-.107H53.059a.114.114,0,0,1,.1.107ZM27.49,43.716V24.408h4.377V43.725h4.273V24.412h4.368V43.725h4.375V24.412h4.361V43.725h1.938V47.66a.1.1,0,0,1-.1.1H16.939a.1.1,0,0,1-.1-.1h0V43.725h1.927V24.412H23.12V43.72ZM54.442,20.329,53.23,22.453a.285.285,0,0,1-.21.123H15.011a.262.262,0,0,1-.2-.123l-1.217-2.124a.143.143,0,0,1,.059-.186L33.9,9.382a.283.283,0,0,1,.238,0L54.38,20.147a.131.131,0,0,1,.068.172l-.008.014" transform="translate(0.005 0.001)" fill="#003d4e"/>
            <path id="Trazado_19" data-name="Trazado 19" d="M64.825,42.054a12.678,12.678,0,0,1,1.593-.278,15.557,15.557,0,0,1,2.059-.142V18.08a18.121,18.121,0,0,1-2.059-.13,14.957,14.957,0,0,1-1.593-.278V14.479h8.556L86.443,32.811c.742,1.015,1.423,1.991,2.029,2.911a15.834,15.834,0,0,1,1.156,1.9h.089c-.036-.309-.063-.86-.094-1.647s-.052-1.759-.052-2.928V18.08a17.619,17.619,0,0,1-2.029-.13,15.274,15.274,0,0,1-1.573-.278V14.479H97.618v3.188a14.65,14.65,0,0,1-1.576.278,17.128,17.128,0,0,1-1.985.13V45.24H89.532L75.718,25.883c-.334-.464-.662-.928-.985-1.407s-.607-.92-.855-1.338-.46-.775-.652-1.089-.309-.521-.373-.642h-.079a11.088,11.088,0,0,1,.138,1.6c.036.782.044,1.546.044,2.286V41.634c.622.035,1.284.086,2.008.167a10.136,10.136,0,0,1,1.6.253V45.24H64.832Z" transform="translate(19.662 4.391)" fill="#003d4e"/>
            <path id="Trazado_20" data-name="Trazado 20" d="M97.3,43.972a8.069,8.069,0,0,1-2.627-.412,6.031,6.031,0,0,1-2.085-1.225A5.9,5.9,0,0,1,91.2,40.387a6.241,6.241,0,0,1-.5-2.606,6.1,6.1,0,0,1,1.043-3.649,7.7,7.7,0,0,1,2.721-2.377A13.006,13.006,0,0,1,98.3,30.467a23.842,23.842,0,0,1,4.358-.4h.828V28.192a3.879,3.879,0,0,0-.923-2.909,4.333,4.333,0,0,0-3.086-.9,7.731,7.731,0,0,0-3.169.652,11.35,11.35,0,0,0-2.7,1.709L91.44,23.691a12.266,12.266,0,0,1,8.541-3.177,9.276,9.276,0,0,1,6.306,1.851c1.406,1.228,2.092,3.241,2.092,6.042v9.383c0,.429.013.821.029,1.173s.044.705.066,1.043c.652.063,1.247.112,1.8.143s1.043.043,1.447.043v3.236c-.684.063-1.7.12-3.074.182s-2.876.094-4.5.094a6.608,6.608,0,0,1-.237-1.221,13.762,13.762,0,0,1-.082-1.686h-.1a8.729,8.729,0,0,1-2.563,2.215,7.462,7.462,0,0,1-3.863.97m1.252-3.7a5.82,5.82,0,0,0,2.928-.689,6.145,6.145,0,0,0,2-1.755V33.165h-.828a11.821,11.821,0,0,0-5.1.944,3.413,3.413,0,0,0-1.968,3.358,2.433,2.433,0,0,0,.977,2.17,3.588,3.588,0,0,0,1.983.637" transform="translate(27.507 6.213)" fill="#003d4e"/>
            <path id="Trazado_21" data-name="Trazado 21" d="M118.413,43.967a12.018,12.018,0,0,1-4.667-.856,9.607,9.607,0,0,1-3.433-2.378,10.392,10.392,0,0,1-2.146-3.6,13.379,13.379,0,0,1-.74-4.533,14.6,14.6,0,0,1,.852-5.123,10.734,10.734,0,0,1,2.408-3.812,10.388,10.388,0,0,1,3.592-2.356,12.294,12.294,0,0,1,4.512-.808,13.281,13.281,0,0,1,4.108.554,8.462,8.462,0,0,1,2.488,1.157v6.607h-3.5a6.392,6.392,0,0,1-.119-.721c-.048-.322-.09-.678-.116-1.054s-.06-.791-.091-1.2-.044-.812-.044-1.181A7.163,7.163,0,0,0,118.8,24.2a5.375,5.375,0,0,0-4.6,2.333,8.129,8.129,0,0,0-1.164,2.54,12.578,12.578,0,0,0-.381,3.164,11.514,11.514,0,0,0,.408,3.119,7.544,7.544,0,0,0,1.233,2.515,5.992,5.992,0,0,0,1.977,1.694,5.768,5.768,0,0,0,2.75.622,8.591,8.591,0,0,0,1.87-.186,8.187,8.187,0,0,0,1.525-.459,10.829,10.829,0,0,0,1.157-.554c.317-.186.577-.341.757-.467l1.617,3.331a8.611,8.611,0,0,1-1.015.623,12.726,12.726,0,0,1-1.6.692,13.327,13.327,0,0,1-2.163.573,14.809,14.809,0,0,1-2.756.235" transform="translate(32.579 6.217)" fill="#003d4e"/>
            <path id="Trazado_22" data-name="Trazado 22" d="M122.947,42.387a12.287,12.287,0,0,1,1.5-.278,13.294,13.294,0,0,1,1.917-.139V26.681c-.7-.063-1.358-.1-1.964-.138s-1.092-.044-1.457-.044V23.312c.709-.1,1.839-.179,3.407-.261s3.292-.115,5.188-.115l-.185,3.649V41.964a11.766,11.766,0,0,1,1.89.162c.652.111,1.148.2,1.474.261V45.57H122.947Zm5.962-22.724a3.066,3.066,0,0,1-2.269-.927,3.127,3.127,0,0,1-.008-4.423l.008-.008a3.083,3.083,0,0,1,2.269-.927,3.146,3.146,0,0,1,2.29,5.352,3.037,3.037,0,0,1-2.29.927" transform="translate(37.285 4.058)" fill="#003d4e"/>
            <path id="Trazado_23" data-name="Trazado 23" d="M143.446,45.86a11.158,11.158,0,0,1-4.913-.994,9.445,9.445,0,0,1-3.344-2.606,10.3,10.3,0,0,1-1.89-3.7,14.843,14.843,0,0,1,.02-8.449,11.946,11.946,0,0,1,1.909-3.838,10.029,10.029,0,0,1,3.327-2.8,10.332,10.332,0,0,1,4.892-1.084,11.3,11.3,0,0,1,4.916.994A9.98,9.98,0,0,1,151.783,26,10.992,10.992,0,0,1,153.77,29.7a14.207,14.207,0,0,1,0,8.4,12.138,12.138,0,0,1-1.987,3.854,10.088,10.088,0,0,1-3.42,2.816,10.383,10.383,0,0,1-4.916,1.089m.086-3.7a5.028,5.028,0,0,0,2.567-.615,5.173,5.173,0,0,0,1.755-1.694,7.926,7.926,0,0,0,1.019-2.546,14.924,14.924,0,0,0,.31-3.137,14.278,14.278,0,0,0-.34-3.138,8.4,8.4,0,0,0-1.035-2.563,5.316,5.316,0,0,0-1.767-1.735,5.041,5.041,0,0,0-2.6-.652,4.829,4.829,0,0,0-2.535.623,5.062,5.062,0,0,0-1.728,1.684,7.591,7.591,0,0,0-.971,2.519,15.821,15.821,0,0,0-.3,3.115,14.787,14.787,0,0,0,.326,3.141,8.528,8.528,0,0,0,.985,2.591,5.083,5.083,0,0,0,1.731,1.759,4.934,4.934,0,0,0,2.579.637m1.544-27.889h6.646l-6.386,6.052H141.06Z" transform="translate(40.241 4.326)" fill="#003d4e"/>
            <path id="Trazado_24" data-name="Trazado 24" d="M150.705,40.228a12.6,12.6,0,0,1,1.522-.278,13.573,13.573,0,0,1,1.938-.142V24.52c-.705-.056-1.371-.1-1.989-.138s-1.1-.043-1.473-.043V21.153c.705-.1,1.824-.185,3.366-.261s3.236-.119,5.082-.119l-.185,3.511h.082a10.75,10.75,0,0,1,2.96-2.725,8.729,8.729,0,0,1,7.234-.508,5.4,5.4,0,0,1,2.047,1.521,6.455,6.455,0,0,1,1.16,2.266,10.252,10.252,0,0,1,.373,2.769V39.8a10.785,10.785,0,0,1,1.909.167c.661.107,1.144.193,1.457.253v3.188H164.642V40.228c.31-.06.771-.13,1.387-.235a16.916,16.916,0,0,1,1.892-.185V28.451a4.671,4.671,0,0,0-.782-2.915,3.191,3.191,0,0,0-2.669-1.015,4.872,4.872,0,0,0-3.106,1.062A12.543,12.543,0,0,0,159.1,27.9V39.808c.622.035,1.241.1,1.878.185s1.088.175,1.414.235v3.188H150.7Z" transform="translate(45.701 6.216)" fill="#003d4e"/>
            <path id="Trazado_25" data-name="Trazado 25" d="M188.162,45.923a20.793,20.793,0,0,1-6.042-.765,10.288,10.288,0,0,1-3.422-1.546v-7.3h3.933c.027.186.066.476.107.867s.1.809.122,1.271.055.95.087,1.434.052.912.052,1.278a11.736,11.736,0,0,0,2.17.626,14.613,14.613,0,0,0,2.947.261,6.844,6.844,0,0,0,2.346-.377,5.759,5.759,0,0,0,1.781-1,4.487,4.487,0,0,0,1.125-1.449,4.027,4.027,0,0,0,.391-1.715,3.875,3.875,0,0,0-.551-2.124,5.677,5.677,0,0,0-1.507-1.573,11.7,11.7,0,0,0-2.162-1.232c-.82-.356-1.659-.713-2.519-1.088a30.161,30.161,0,0,1-3.034-1.387,11.122,11.122,0,0,1-2.49-1.779,7.6,7.6,0,0,1-1.711-2.5,8.811,8.811,0,0,1-.629-3.5,7.551,7.551,0,0,1,.782-3.469,7.8,7.8,0,0,1,2.068-2.606,8.89,8.89,0,0,1,3.142-1.643,13.149,13.149,0,0,1,3.91-.555,18.844,18.844,0,0,1,5.788.734,11.822,11.822,0,0,1,3.117,1.389v7.25h-3.93c-.025-.19-.06-.467-.107-.833s-.094-.775-.119-1.224-.052-.912-.064-1.385-.029-.9-.029-1.271a10.943,10.943,0,0,0-2.076-.583,15.2,15.2,0,0,0-2.586-.2,5.259,5.259,0,0,0-3.56,1.153,3.748,3.748,0,0,0-1.334,2.958,3.609,3.609,0,0,0,.412,1.775,4.513,4.513,0,0,0,1.152,1.363,9.254,9.254,0,0,0,1.763,1.088c.672.322,1.414.652,2.208.99q1.724.7,3.351,1.48a13.311,13.311,0,0,1,2.936,1.9,8.654,8.654,0,0,1,2.085,2.657,8.321,8.321,0,0,1,.782,3.76,8.111,8.111,0,0,1-2.915,6.4,9.877,9.877,0,0,1-3.362,1.824,14.192,14.192,0,0,1-4.4.652" transform="translate(54.189 4.263)" fill="#003d4e"/>
            <path id="Trazado_26" data-name="Trazado 26" d="M207.889,43.971a12.614,12.614,0,0,1-4.725-.829A9.563,9.563,0,0,1,199.7,40.8a9.859,9.859,0,0,1-2.15-3.6,13.844,13.844,0,0,1-.738-4.636,14.917,14.917,0,0,1,.782-5.034,10.806,10.806,0,0,1,2.235-3.79,9.742,9.742,0,0,1,3.461-2.406,11.645,11.645,0,0,1,4.457-.825,8.341,8.341,0,0,1,6.678,2.7,10.666,10.666,0,0,1,2.338,7.23c0,.313-.013.714-.025,1.225a9.892,9.892,0,0,1-.115,1.225h-14.6a8.4,8.4,0,0,0,1.778,5.42,6.063,6.063,0,0,0,4.873,1.964,8.648,8.648,0,0,0,3.439-.618,12.917,12.917,0,0,0,2.245-1.185l1.664,3.279c-.338.193-.749.413-1.233.676a10.962,10.962,0,0,1-1.7.74,14.9,14.9,0,0,1-2.29.573,16.521,16.521,0,0,1-2.913.235m3.936-14.42a9.042,9.042,0,0,0-.25-2.166,5.754,5.754,0,0,0-.773-1.781,3.488,3.488,0,0,0-1.362-1.2,4.383,4.383,0,0,0-2.047-.44,4.653,4.653,0,0,0-3.676,1.529,7.076,7.076,0,0,0-1.646,4.059Z" transform="translate(59.681 6.215)" fill="#003d4e"/>
            <path id="Trazado_27" data-name="Trazado 27" d="M214.46,40.227a12.184,12.184,0,0,1,1.53-.278,13.572,13.572,0,0,1,1.938-.142V24.52c-.71-.056-1.374-.1-1.989-.138s-1.109-.043-1.48-.043V21.152c.713-.1,1.843-.185,3.388-.261s3.258-.119,5.106-.119l-.222,3.976h.09a8.747,8.747,0,0,1,2.148-2.841,6.123,6.123,0,0,1,1.633-1.015,5.1,5.1,0,0,1,2.037-.391,6.511,6.511,0,0,1,1.775.182,4.791,4.791,0,0,1,.95.371L230.2,25.444a3.969,3.969,0,0,0-.764-.322,4.477,4.477,0,0,0-1.445-.182,4.068,4.068,0,0,0-1.944.456,7.178,7.178,0,0,0-1.53,1.089,9.793,9.793,0,0,0-1.074,1.225,4.851,4.851,0,0,0-.583.923V39.808c.314,0,.652.02,1.043.044s.761.06,1.13.1a9.029,9.029,0,0,1,1.043.142c.326.056.562.1.709.13V43.41H214.459Z" transform="translate(65.032 6.216)" fill="#003d4e"/>
            <path id="Trazado_28" data-name="Trazado 28" d="M230.4,24.485l-1.482-.19a8.254,8.254,0,0,1-1.054-.182V20.929H238.2v3.184a8.907,8.907,0,0,1-1.157.182l-1.564.19,3.695,10.392q.227.69.558,1.617a12.608,12.608,0,0,1,.459,1.616h.1a7.057,7.057,0,0,1,.42-1.616c.206-.619.391-1.138.55-1.572l3.659-10.439-1.62-.19a8.563,8.563,0,0,1-1.165-.182V20.929h9.942v3.184a16.13,16.13,0,0,1-2.737.373l-7.112,18.8H237.6Z" transform="translate(69.095 6.347)" fill="#003d4e"/>
            <path id="Trazado_29" data-name="Trazado 29" d="M247.706,42.388a12.179,12.179,0,0,1,1.5-.278,13.3,13.3,0,0,1,1.918-.139V26.681c-.7-.063-1.351-.1-1.964-.138s-1.086-.044-1.454-.044V23.313c.7-.1,1.839-.179,3.4-.261s3.288-.115,5.191-.115l-.185,3.649V41.964a11.7,11.7,0,0,1,1.884.162c.652.111,1.142.2,1.48.261V45.57H247.7Zm5.953-22.724a3.043,3.043,0,0,1-2.261-.927,3.11,3.11,0,0,1-.031-4.4l.031-.031a3.058,3.058,0,0,1,2.261-.927,3.021,3.021,0,0,1,2.288.927,3.149,3.149,0,0,1,0,4.431,3.012,3.012,0,0,1-2.288.927" transform="translate(75.112 4.057)" fill="#003d4e"/>
            <path id="Trazado_30" data-name="Trazado 30" d="M269.335,43.967a11.955,11.955,0,0,1-4.669-.856,9.6,9.6,0,0,1-3.439-2.38,10.541,10.541,0,0,1-2.142-3.6,13.211,13.211,0,0,1-.74-4.533,14.533,14.533,0,0,1,.852-5.123,10.757,10.757,0,0,1,2.406-3.812,10.283,10.283,0,0,1,3.593-2.356,12.241,12.241,0,0,1,4.512-.808,13.149,13.149,0,0,1,4.1.554,8.531,8.531,0,0,1,2.494,1.157v6.607h-3.5c-.033-.158-.074-.4-.116-.721s-.086-.678-.112-1.054-.066-.791-.1-1.2-.051-.812-.051-1.181a7.045,7.045,0,0,0-2.715-.463,5.538,5.538,0,0,0-2.685.622,5.451,5.451,0,0,0-1.918,1.711,8.269,8.269,0,0,0-1.156,2.54,12.278,12.278,0,0,0-.391,3.164,11.821,11.821,0,0,0,.4,3.119,7.853,7.853,0,0,0,1.233,2.515,6.126,6.126,0,0,0,1.991,1.694,5.733,5.733,0,0,0,2.748.622A8.566,8.566,0,0,0,271.79,40a8.371,8.371,0,0,0,1.54-.459,12.078,12.078,0,0,0,1.148-.554c.326-.186.585-.341.76-.467l1.624,3.331a10.226,10.226,0,0,1-1.015.623,13.142,13.142,0,0,1-3.766,1.264,14.727,14.727,0,0,1-2.748.235" transform="translate(78.337 6.217)" fill="#003d4e"/>
            <path id="Trazado_31" data-name="Trazado 31" d="M274.745,42.395a12.363,12.363,0,0,1,1.51-.278,13.083,13.083,0,0,1,1.9-.139V26.688c-.684-.063-1.342-.1-1.955-.138s-1.082-.044-1.457-.044V23.32c.706-.1,1.845-.179,3.4-.261s3.292-.115,5.187-.115l-.173,3.649V41.971a11.765,11.765,0,0,1,1.89.162q.977.166,1.48.261v3.184H274.745ZM280.7,19.671a3.128,3.128,0,0,1-2.257-5.357,3.182,3.182,0,0,1,5.459,2.215,3.129,3.129,0,0,1-3.117,3.138h-.08" transform="translate(83.311 4.05)" fill="#003d4e"/>
            <path id="Trazado_32" data-name="Trazado 32" d="M296.119,43.968a11.152,11.152,0,0,1-4.9-.994,9.393,9.393,0,0,1-3.344-2.606,10.543,10.543,0,0,1-1.892-3.7,15.317,15.317,0,0,1-.593-4.25,14.98,14.98,0,0,1,.615-4.2,11.967,11.967,0,0,1,1.918-3.838,10.047,10.047,0,0,1,3.311-2.8,10.285,10.285,0,0,1,4.888-1.08,11.393,11.393,0,0,1,4.933.99,9.9,9.9,0,0,1,3.41,2.606,10.556,10.556,0,0,1,1.981,3.7,13.954,13.954,0,0,1,0,8.406,11.647,11.647,0,0,1-1.981,3.854,10.074,10.074,0,0,1-3.41,2.816,10.45,10.45,0,0,1-4.933,1.089m.1-3.7a5.1,5.1,0,0,0,2.586-.618,5.334,5.334,0,0,0,1.739-1.686,7.583,7.583,0,0,0,1-2.54,14.381,14.381,0,0,0,.322-3.142,13.248,13.248,0,0,0-.345-3.138,8.108,8.108,0,0,0-1.027-2.563,5.339,5.339,0,0,0-1.774-1.736,5.007,5.007,0,0,0-2.6-.645,4.827,4.827,0,0,0-2.523.622,5.024,5.024,0,0,0-1.731,1.684,7.482,7.482,0,0,0-.963,2.519,15.052,15.052,0,0,0-.3,3.115,14,14,0,0,0,.322,3.142,8.277,8.277,0,0,0,.989,2.583,4.984,4.984,0,0,0,1.723,1.767,4.918,4.918,0,0,0,2.579.637" transform="translate(86.537 6.217)" fill="#003d4e"/>
            <path id="Trazado_33" data-name="Trazado 33" d="M312.709,43.969a21.387,21.387,0,0,1-4.749-.49,9.347,9.347,0,0,1-3.193-1.217V36.4h3.558a3.741,3.741,0,0,1,.091.551c.039.281.056.586.1.927l.087,1.018a7.1,7.1,0,0,1,.056.833,13.179,13.179,0,0,0,1.843.459,11.5,11.5,0,0,0,2.166.186,6.241,6.241,0,0,0,3.214-.734A2.293,2.293,0,0,0,317.1,37.6a2.1,2.1,0,0,0-.416-1.316,3.845,3.845,0,0,0-1.132-.946,8.8,8.8,0,0,0-1.633-.738c-.618-.223-1.267-.433-1.946-.652-.8-.245-1.606-.53-2.424-.856a8.755,8.755,0,0,1-2.195-1.268,6.364,6.364,0,0,1-1.6-1.944,6.106,6.106,0,0,1-.619-2.9,5.646,5.646,0,0,1,2.245-4.784,10.083,10.083,0,0,1,6.156-1.684,18.8,18.8,0,0,1,2.665.179c.812.13,1.552.274,2.215.443a12.1,12.1,0,0,1,1.694.558,11.067,11.067,0,0,1,1.022.483v5.864h-3.6a9.556,9.556,0,0,1-.193-1.414c-.056-.669-.1-1.311-.13-1.922-.528-.151-1.092-.284-1.686-.4a9.7,9.7,0,0,0-1.921-.189,4.863,4.863,0,0,0-2.924.742,2.293,2.293,0,0,0-1,1.934,1.886,1.886,0,0,0,.421,1.247,3.67,3.67,0,0,0,1.093.876,15.055,15.055,0,0,0,1.573.689l1.9.594c.837.285,1.694.581,2.548.9a9.269,9.269,0,0,1,2.3,1.247,6.042,6.042,0,0,1,1.672,1.913,5.663,5.663,0,0,1,.652,2.81,6.156,6.156,0,0,1-.67,2.924,6.4,6.4,0,0,1-1.894,2.166A8.521,8.521,0,0,1,316.38,43.5a13.485,13.485,0,0,1-3.657.467" transform="translate(92.414 6.215)" fill="#003d4e"/>
          </g>
        </g>
      </g>
    </g>
  </g>
</svg>
