<svg xmlns="http://www.w3.org/2000/svg" xmlns:xlink="http://www.w3.org/1999/xlink" width="300" zoomAndPan="magnify" viewBox="0 0 224.87999 225" height="300" preserveAspectRatio="xMidYMid meet" version="1.0"><defs><clipPath id="e89ee400cb"><path d="M 3.914062 3.378906 L 221 3.378906 L 221 221.511719 L 3.914062 221.511719 Z M 3.914062 3.378906 " clip-rule="nonzero"/></clipPath></defs><g clip-path="url(#e89ee400cb)"><path fill="#ffffff" d="M 189.3125 35.179688 C 168.910156 14.757812 141.785156 3.488281 112.878906 3.488281 C 53.316406 3.488281 4.839844 51.957031 4.820312 111.539062 C 4.820312 130.578125 9.789062 149.179688 19.246094 165.554688 L 3.914062 221.546875 L 61.199219 206.519531 C 76.984375 215.132812 94.753906 219.660156 112.835938 219.671875 L 112.878906 219.671875 C 172.425781 219.671875 220.914062 171.195312 220.925781 111.625 C 220.925781 82.75 209.710938 55.609375 189.300781 35.179688 Z M 112.878906 201.429688 L 112.84375 201.429688 C 96.738281 201.429688 80.917969 197.09375 67.128906 188.910156 L 63.851562 186.957031 L 29.855469 195.875 L 38.921875 162.730469 L 36.789062 159.335938 C 27.796875 145.039062 23.050781 128.507812 23.0625 111.539062 C 23.082031 62.027344 63.375 21.734375 112.910156 21.734375 C 136.898438 21.734375 159.445312 31.09375 176.40625 48.074219 C 193.367188 65.046875 202.691406 87.613281 202.683594 111.613281 C 202.660156 161.136719 162.367188 201.429688 112.867188 201.429688 Z M 162.140625 134.167969 C 159.445312 132.820312 146.171875 126.289062 143.691406 125.394531 C 141.210938 124.488281 139.421875 124.046875 137.621094 126.742188 C 135.820312 129.445312 130.644531 135.527344 129.070312 137.328125 C 127.496094 139.128906 125.921875 139.355469 123.21875 137.996094 C 120.523438 136.648438 111.820312 133.792969 101.503906 124.59375 C 93.480469 117.4375 88.058594 108.59375 86.484375 105.886719 C 84.910156 103.183594 86.320312 101.726562 87.667969 100.378906 C 88.875 99.171875 90.363281 97.21875 91.722656 95.644531 C 93.070312 94.070312 93.523438 92.9375 94.417969 91.136719 C 95.324219 89.335938 94.871094 87.761719 94.191406 86.40625 C 93.511719 85.058594 88.121094 71.761719 85.867188 66.359375 C 83.679688 61.097656 81.449219 61.8125 79.796875 61.722656 C 78.222656 61.648438 76.421875 61.628906 74.621094 61.628906 C 72.820312 61.628906 69.898438 62.296875 67.417969 65.003906 C 64.941406 67.707031 57.976562 74.242188 57.976562 87.527344 C 57.976562 100.808594 67.644531 113.652344 69.003906 115.460938 C 70.351562 117.261719 88.046875 144.53125 115.128906 156.230469 C 121.566406 159.011719 126.601562 160.671875 130.527344 161.921875 C 136.996094 163.980469 142.882812 163.691406 147.53125 162.988281 C 152.71875 162.214844 163.5 156.457031 165.753906 150.148438 C 168.007812 143.839844 168.007812 138.4375 167.328125 137.308594 C 166.648438 136.175781 164.847656 135.507812 162.152344 134.148438 Z M 162.140625 134.167969 " fill-opacity="1" fill-rule="evenodd"/></g></svg>